<svg width="45" height="45" viewBox="0 0 45 45" fill="none" xmlns="http://www.w3.org/2000/svg">
<g clip-path="url(#clip0_225_11)">
<path d="M0.825927 20.5137C-0.272706 21.6123 -0.272706 23.3965 0.825927 24.4951L12.0759 35.7451C13.1746 36.8437 14.9587 36.8437 16.0574 35.7451C17.156 34.6465 17.156 32.8623 16.0574 31.7637L9.6062 25.3125L42.1873 25.3125C43.7429 25.3125 44.9998 24.0557 44.9998 22.5C44.9998 20.9443 43.7429 19.6875 42.1873 19.6875L9.6062 19.6875L16.0574 13.2363C17.156 12.1377 17.156 10.3535 16.0574 9.25488C14.9587 8.15625 13.1746 8.15625 12.0759 9.25488L0.825927 20.5049V20.5137Z" fill="#B0CC49"/>
</g>
<defs>
<clipPath id="clip0_225_11">
<rect width="45" height="45" fill="white" transform="matrix(-1 0 0 -1 44.9998 45)"/>
</clipPath>
</defs>
</svg>
